<?xml version="1.0" encoding="utf-8"?>
<!-- Generator: Adobe Illustrator 13.0.0, SVG Export Plug-In . SVG Version: 6.00 Build 14948)  -->
<!DOCTYPE svg PUBLIC "-//W3C//DTD SVG 1.1//EN" "http://www.w3.org/Graphics/SVG/1.1/DTD/svg11.dtd">
<svg version="1.1" id="Layer_1" xmlns="http://www.w3.org/2000/svg" xmlns:xlink="http://www.w3.org/1999/xlink" x="0px" y="0px"
	 width="1000.058px" height="998.92px" viewBox="0 0 1000.058 998.92" enable-background="new 0 0 1000.058 998.92"
	 xml:space="preserve">
<g>
	<g>
		<path fill="#FFF3DE" d="M971.127,499.518c0,260.472-211.161,471.626-471.617,471.626
			C239.014,971.159,27.868,759.989,27.868,499.518c0-260.48,211.146-471.642,471.642-471.65
			C759.966,27.868,971.127,239.037,971.127,499.518z"/>
	</g>
	<g>
		<path fill="#AABC3C" d="M863.57,777.762c0,0-1.15,1.67-1.725,2.504c-79.509,114.803-212.17,189.979-362.376,189.979
			c-151.261,0.017-284.686-76.217-364.005-192.318c-0.386-0.543-1.11-1.63-1.11-1.63L499.47,501.636L863.57,777.762z"/>
	</g>
	<path fill="#0E4475" d="M752.501,436.175c0,59.39-20.419,114.007-54.634,157.214C651.432,652.007,499.51,834.403,499.51,834.403
		S345.61,651.455,299.23,592.082c-33.601-42.995-53.626-97.116-53.626-155.907c0-139.977,113.472-253.447,253.456-253.447
		C639.029,182.728,752.501,296.198,752.501,436.175z"/>
	<polygon fill="#FFF3DE" points="499.51,242.786 542.795,376.054 682.914,376.054 569.553,458.404 612.862,591.656 499.51,509.306 
		386.148,591.656 429.442,458.404 316.105,376.054 456.2,376.054 	"/>
	<path fill="#0E4475" d="M499.493,998.987C223.596,998.972,0.032,775.36,0,499.51l0,0C0.032,223.635,223.611,0.032,499.51,0l0,0
		c275.858,0.032,499.446,223.635,499.478,499.51l0,0c-0.031,275.866-223.619,499.478-499.478,499.478l0,0
		C499.493,998.987,499.493,998.987,499.493,998.987L499.493,998.987z M516.943,949.426c-0.031-0.017-0.047-0.04-0.062-0.056l0,0
		C516.896,949.386,516.912,949.409,516.943,949.426L516.943,949.426z M516.416,949.008c-0.071-0.039-0.118-0.078-0.165-0.134l0,0
		C516.298,948.93,516.345,948.969,516.416,949.008L516.416,949.008z M515.967,948.67c-0.314-0.221-0.646-0.465-1.023-0.709l0,0
		v0.008C515.29,948.189,515.62,948.434,515.967,948.67L515.967,948.67z M185.704,185.704
		C105.337,266.11,55.743,376.872,55.728,499.51l0,0c0.016,122.613,49.609,233.383,129.96,313.781l0,0
		c80.383,80.367,191.153,129.969,313.806,129.977l0,0c0,0,0,0,0.017,0l0,0l0,0c122.605,0,233.384-49.609,313.781-129.952l0,0
		c80.352-80.406,129.961-191.169,129.977-313.806l0,0c-0.016-122.638-49.625-233.399-129.977-313.806l0,0
		C732.894,105.345,622.115,55.72,499.51,55.72l0,0C376.864,55.744,266.11,105.345,185.704,185.704L185.704,185.704z"/>
</g>
</svg>
